HIERARCHY
ROOT Hips
{
	OFFSET 0.000000 0.000000 0.000000
	CHANNELS 6 Xposition Yposition Zposition Xrotation Yrotation Zrotation
	JOINT LeftUpLeg_virtual
	{
		OFFSET 0.000000 0.000000 0.000000
		CHANNELS 3 Xrotation Yrotation Zrotation
		JOINT LeftUpLeg
		{
			OFFSET 11.394100 -6.187798 -0.413800
			CHANNELS 3 Xrotation Yrotation Zrotation
			JOINT LeftLeg
			{
				OFFSET 0.430247 -32.302673 3.732800
				CHANNELS 3 Xrotation Yrotation Zrotation
				JOINT LeftFoot
				{
					OFFSET -0.430247 -48.264931 -6.423300
					CHANNELS 3 Xrotation Yrotation Zrotation
					JOINT LeftToeBase
					{
						OFFSET 4.230900 -16.068199 23.438400
						CHANNELS 3 Xrotation Yrotation Zrotation
						JOINT LeftToe_End
						{
							OFFSET 4.510700 0.695400 19.974600
							CHANNELS 3 Xrotation Yrotation Zrotation
							End Site
							{
								OFFSET 0 0 0
							}
						}
					}
				}
			}
		}
	}
	JOINT RightUpLeg_virtual
	{
		OFFSET 0.000000 0.000000 0.000000
		CHANNELS 3 Xrotation Yrotation Zrotation
		JOINT RightUpLeg
		{
			OFFSET -11.333700 -6.187798 -0.413800
			CHANNELS 3 Xrotation Yrotation Zrotation
			JOINT RightLeg
			{
				OFFSET -0.430392 -32.302628 3.733000
				CHANNELS 3 Xrotation Yrotation Zrotation
				JOINT RightFoot
				{
					OFFSET 0.430392 -48.264973 -6.423500
					CHANNELS 3 Xrotation Yrotation Zrotation
					JOINT RightToeBase
					{
						OFFSET -4.230900 -16.068199 23.438400
						CHANNELS 3 Xrotation Yrotation Zrotation
						JOINT RightToe_End
						{
							OFFSET -4.510700 0.695400 19.974600
							CHANNELS 3 Xrotation Yrotation Zrotation
							End Site
							{
								OFFSET 0 0 0
							}
						}
					}
				}
			}
		}
	}
	JOINT Spine_virtual
	{
		OFFSET 0.000000 0.000000 0.000000
		CHANNELS 3 Xrotation Yrotation Zrotation
		JOINT Spine
		{
			OFFSET -0.002400 12.777504 0.315300
			CHANNELS 3 Xrotation Yrotation Zrotation
			JOINT Spine1
			{
				OFFSET -0.002067 5.816869 0.032633
				CHANNELS 3 Xrotation Yrotation Zrotation
				JOINT Spine1_split
				{
					OFFSET -0.002067 5.816869 0.032633
					CHANNELS 3 Xrotation Yrotation Zrotation
					JOINT Spine2
					{
						OFFSET -0.002067 5.816869 0.032633
						CHANNELS 3 Xrotation Yrotation Zrotation
						JOINT Neck_virtual
						{
							OFFSET 0.000000 0.000000 0.000000
							CHANNELS 3 Xrotation Yrotation Zrotation
							JOINT Neck
							{
								OFFSET -0.003700 21.199493 -0.826900
								CHANNELS 3 Xrotation Yrotation Zrotation
								JOINT Head
								{
									OFFSET 0.000000 20.442200 4.834800
									CHANNELS 3 Xrotation Yrotation Zrotation
									JOINT HeadTop_End
									{
										OFFSET 0.000000 34.668396 4.968400
										CHANNELS 3 Xrotation Yrotation Zrotation
										End Site
										{
											OFFSET 0 0 0
										}
									}
								}
							}
						}
						JOINT LeftShoulder_virtual
						{
							OFFSET 0.000000 0.000000 0.000000
							CHANNELS 3 Xrotation Yrotation Zrotation
							JOINT LeftShoulder
							{
								OFFSET 3.288150 8.794197 -1.372250
								CHANNELS 3 Xrotation Yrotation Zrotation
								JOINT LeftShoulder_split
								{
									OFFSET 3.288150 8.794197 -1.372250
									CHANNELS 3 Xrotation Yrotation Zrotation
									JOINT LeftArm
									{
										OFFSET 11.953299 -2.279007 -0.146200
										CHANNELS 3 Xrotation Yrotation Zrotation
										JOINT LeftForeArm
										{
											OFFSET 18.448900 0.000000 0.000000
											CHANNELS 3 Xrotation Yrotation Zrotation
											JOINT LeftHand
											{
												OFFSET 29.527798 0.000000 0.000000
												CHANNELS 3 Xrotation Yrotation Zrotation
												End Site
												{
													OFFSET 0 0 0
												}
											}
										}
									}
								}
							}
						}
						JOINT RightShoulder_virtual
						{
							OFFSET 0.000000 0.000000 0.000000
							CHANNELS 3 Xrotation Yrotation Zrotation
							JOINT RightShoulder
							{
								OFFSET -3.249400 8.794197 -1.372250
								CHANNELS 3 Xrotation Yrotation Zrotation
								JOINT RightShoulder_split
								{
									OFFSET -3.249400 8.794197 -1.372250
									CHANNELS 3 Xrotation Yrotation Zrotation
									JOINT RightArm
									{
										OFFSET -11.953299 -2.279007 -0.146200
										CHANNELS 3 Xrotation Yrotation Zrotation
										JOINT RightForeArm
										{
											OFFSET -18.448900 0.000000 0.000000
											CHANNELS 3 Xrotation Yrotation Zrotation
											JOINT RightHand
											{
												OFFSET -29.527802 0.000000 0.000000
												CHANNELS 3 Xrotation Yrotation Zrotation
												End Site
												{
													OFFSET 0 0 0
												}
											}
										}
									}
								}
							}
						}
					}
				}
			}
		}
	}
}
MOTION
Frames: 4
Frame Time: 0.03333333
3.551156 104.656441 -10.250832 0.000000 0.000000 0.000000 -2.853065 19.429638 0.541664 -14.039096 17.126720 8.952836 10.631125 -3.928742 3.550041 2.997405 4.039183 -11.841826 0.431975 -4.040068 0.398082 0.000000 0.000000 0.000000 -1.980405 19.881173 0.475429 -10.475345 4.091393 2.896591 7.934562 1.669644 -3.134876 0.739634 -5.010798 5.433298 7.097404 0.326049 -23.698296 0.000000 0.000000 0.000000 -3.101558 24.624975 0.173590 2.361200 -3.255190 0.682795 3.518862 -1.448635 1.024273 0.188963 -0.529192 0.043413 0.000000 0.000000 0.000000 1.728975 0.969820 0.988074 -9.527154 6.354279 8.854177 6.846990 -23.059730 -6.484280 0.000000 0.000000 0.000000 1.120242 -0.811953 0.817044 1.318872 -1.521405 -4.091008 -0.087345 -2.385697 -2.124693 4.580474 12.368453 -81.329863 13.392795 -25.716846 4.975768 0.000000 0.000000 0.000000 1.951027 -0.520796 1.246054 2.499609 -3.701530 8.320999 -4.261222 1.259522 -1.540269 3.471556 18.458110 72.224189 1.284734 16.285881 2.707826 0.000000 0.000000 0.000000 
3.831802 104.659653 -10.327579 0.000000 0.000000 0.000000 -2.784849 19.023363 0.474334 -13.888258 17.021605 8.715694 10.431699 -3.672601 3.704876 2.425786 4.164939 -11.317395 0.632542 -4.062493 0.267020 0.000000 0.000000 0.000000 -2.034594 19.652015 0.421898 -10.416660 3.730261 2.807539 7.394112 1.474608 -3.068844 0.466462 -4.944341 4.792701 8.131848 0.322917 -23.597038 0.000000 0.000000 0.000000 -2.862622 24.395580 -0.010236 2.201194 -3.197445 0.771742 3.564753 -1.455362 0.992290 0.230144 -0.562943 0.046398 0.000000 0.000000 0.000000 1.834405 0.966535 0.984575 -9.480714 6.420503 8.906548 6.856922 -22.807081 -6.532638 0.000000 0.000000 0.000000 1.167266 -0.823021 0.796466 1.336621 -1.514625 -4.046271 0.070599 -2.749920 -1.906721 4.558901 12.318345 -81.401634 13.415140 -25.802064 5.019103 0.000000 0.000000 0.000000 1.960147 -0.526112 1.262466 2.417026 -4.002020 8.062962 -4.373755 1.117915 -1.529670 2.924698 18.911737 72.365007 1.165516 17.229757 2.594001 0.000000 0.000000 0.000000 
4.245345 104.663498 -10.335857 0.000000 0.000000 0.000000 -2.755635 18.686812 0.385373 -13.653607 17.148769 8.511794 10.578965 -3.550631 3.821480 1.806731 4.057027 -11.081705 1.106596 -4.104045 0.460714 0.000000 0.000000 0.000000 -2.160523 19.120848 0.355439 -10.506010 3.275933 2.546914 6.860763 1.524348 -2.921914 0.859274 -4.673389 4.744826 7.755495 0.682228 -23.248601 0.000000 0.000000 0.000000 -2.761801 24.183873 -0.190426 2.091151 -3.056015 0.917984 3.609893 -1.466449 0.932321 0.259353 -0.580233 0.036630 0.000000 0.000000 0.000000 1.984610 0.955577 0.939011 -9.624935 6.455075 9.053256 6.939202 -22.217185 -6.387699 0.000000 0.000000 0.000000 1.224108 -0.844569 0.734506 1.329376 -1.441770 -3.895200 0.219067 -3.105849 -1.681623 4.480053 12.442151 -81.606199 13.419587 -25.885620 5.079412 0.000000 0.000000 0.000000 1.999276 -0.551167 1.240799 2.274856 -4.429551 7.675756 -4.365261 0.907645 -1.422072 2.194204 19.577609 72.619398 1.087434 18.066511 2.120125 0.000000 0.000000 0.000000 
4.767626 104.680313 -10.258965 0.000000 0.000000 0.000000 -2.796527 18.460579 0.330979 -13.379308 17.606717 8.322235 10.981944 -3.461710 3.859408 1.166971 3.774679 -11.011210 1.773270 -4.157802 1.018226 0.000000 0.000000 0.000000 -2.235295 18.500291 0.296013 -10.453468 2.931311 2.187494 6.349451 1.689164 -2.710577 1.340637 -4.374534 4.954312 6.506894 1.242699 -22.693242 0.000000 0.000000 0.000000 -2.792660 24.010164 -0.309883 2.047645 -2.879046 1.062561 3.657027 -1.475874 0.868547 0.263088 -0.582378 0.038553 0.000000 0.000000 0.000000 2.118528 0.933294 0.881486 -9.874249 6.457037 9.259275 7.214858 -21.413063 -6.020968 0.000000 0.000000 0.000000 1.268266 -0.872732 0.650787 1.306159 -1.303777 -3.700753 0.352618 -3.413422 -1.483240 4.431149 12.616019 -81.962420 13.395189 -25.926666 5.129441 0.000000 0.000000 0.000000 2.070461 -0.585912 1.202033 2.083539 -4.876542 7.224088 -4.278749 0.812203 -1.314055 1.439545 20.173097 72.993234 1.048825 18.667426 1.353908 0.000000 0.000000 0.000000 
